<svg width="512" height="512" version="1.1" xmlns="http://www.w3.org/2000/svg" desc="Created with imagetracer.js version 1.2.6" ><path fill="rgb(0,0,0)" stroke="rgb(0,0,0)" stroke-width="1" opacity="0" d="M 0 0 L 232 0.5 L 223.5 1 L 197.5 6 L 167.5 15 L 145.5 24 Q 123.9 33.9 105.5 47 L 75 72 L 47 105.5 L 25 142.5 Q 14.7 163.7 8 188.5 L 2 217.5 L 0.5 234 L 0 0 Z " /><path fill="rgb(0,0,0)" stroke="rgb(0,0,0)" stroke-width="1" opacity="0" d="M 277.5 0 L 512 0 L 512 231.5 L 511 231.5 L 510 214.5 L 505 190.5 Q 497.8 163.7 486 141.5 Q 462.4 97.6 426.5 66 Q 396.1 38.9 356.5 21 L 316.5 7 L 292.5 2 L 277.5 1 L 277.5 0 Z " /><path fill="rgb(0,0,0)" stroke="rgb(0,0,0)" stroke-width="1" opacity="0" d="M 231.5 21 L 278.5 21 L 279.5 22 L 293.5 23 L 313.5 30 L 329 42.5 L 330 44.5 L 319.5 47 L 282.5 51 L 278 53.5 L 255.5 97 L 231.5 52 L 205.5 49 L 204.5 48 L 197.5 48 L 189.5 46 L 182.5 46 L 181 44.5 L 189.5 35 L 203.5 27 L 217.5 23 L 230.5 22 L 231.5 21 Z " /><path fill="rgb(0,0,0)" stroke="rgb(0,0,0)" stroke-width="1" opacity="0" d="M 144.5 48 L 136.5 57 L 134 58.5 Q 133.4 61.3 139.5 60 L 140.5 61 L 147.5 61 L 155.5 63 L 162.5 63 L 177.5 66 L 205.5 69 L 206.5 70 L 213.5 70 L 219 72.5 L 248 126.5 L 254 140.5 L 219 208 L 177.5 213 L 176.5 214 L 169.5 214 L 154.5 217 L 140.5 218 L 88 168.5 L 92 147.5 L 100 87.5 L 101 85 L 98.5 85 L 88.5 92 L 99.5 80 Q 119.7 61.7 144.5 48 Z " /><path fill="rgb(0,0,0)" stroke="rgb(0,0,0)" stroke-width="1" opacity="0" d="M 366.5 49 Q 396 64 418 86.5 L 416.5 86 L 407.5 81 L 407 85.5 L 410 97.5 L 421 164.5 L 366.5 218 L 365.5 217 L 350.5 216 L 349.5 215 L 313.5 211 L 305.5 209 L 298.5 209 L 293.5 208 L 291 205.5 L 258 144.5 L 256 138.5 L 281 92.5 L 291 71 L 376 60 L 374.5 57 L 366.5 49 Z " /><path fill="rgb(0,0,0)" stroke="rgb(0,0,0)" stroke-width="1" opacity="0" d="M 435 121 L 457 133.5 Q 473.9 162.1 485 196.5 L 489 215.5 L 489 239.5 Q 486.5 253.2 481 263 Q 478.3 264.1 479 261.5 L 458 216 L 407 207.5 L 443 171.5 L 443 167.5 L 435 121 Z " /><path fill="rgb(0,0,0)" stroke="rgb(0,0,0)" stroke-width="1" opacity="0" d="M 73.5 125 L 74 128.5 L 73 129.5 L 72 141.5 L 66 175.5 L 103 211.5 L 57.5 220 L 52 222.5 L 31.5 268 Q 18.4 251.1 21 218.5 L 29 186.5 Q 38.8 160.6 51 138 L 73.5 125 Z " /><path fill="rgb(0,0,0)" stroke="rgb(0,0,0)" stroke-width="1" opacity="0" d="M 255.5 182 L 278 227 L 303.5 230 L 304.5 231 L 318.5 232 L 319.5 233 L 326.5 233 L 330 234.5 L 294 268.5 L 302 317 L 254.5 295 L 208.5 318 L 208 316.5 L 209 315.5 L 209 309.5 L 210 308.5 L 216 268.5 L 180 234.5 L 191.5 232 L 219.5 229 L 220.5 228 L 227.5 228 L 232 225.5 L 255.5 182 Z " /><path fill="rgb(0,0,0)" stroke="rgb(0,0,0)" stroke-width="1" opacity="0" d="M 374.5 223 L 380.5 225 L 437.5 234 L 445 236 L 480.5 312 L 487.5 298 L 488 301.5 L 480 330.5 L 466.5 361 L 466 359.5 L 469 346 L 395.5 384 L 392.5 384 L 329 351.5 L 328 341.5 L 315 276.5 L 374.5 223 Z " /><path fill="rgb(0,0,0)" stroke="rgb(0,0,0)" stroke-width="1" opacity="0" d="M 138.5 226 L 142.5 227 L 195 275.5 L 195 280.5 L 193 286.5 L 193 291.5 L 191 297.5 L 183 346.5 L 180.5 351 L 114.5 382 L 40 341 L 43 355.5 L 42 355.5 L 29 321.5 L 25 303.5 L 26 303.5 L 32.5 317 L 38 307.5 L 68.5 240 L 138.5 226 Z " /><path fill="rgb(0,0,0)" stroke="rgb(0,0,0)" stroke-width="1" opacity="0" d="M 0.5 280 L 2 296.5 L 8 325.5 L 17 352.5 L 30 380.5 Q 52.3 420.3 85.5 449 Q 117.2 476.3 158.5 494 Q 177.4 502.1 199.5 507 L 232 511.5 L 0 512 L 0.5 280 Z " /><path fill="rgb(0,0,0)" stroke="rgb(0,0,0)" stroke-width="1" opacity="0" d="M 511.5 282 L 512 512 L 273 511.5 L 301.5 508 L 322.5 503 L 360.5 489 Q 410 466 445 428.5 Q 472.8 399.3 491 360.5 L 505 321.5 L 510 297.5 L 511.5 282 Z " /><path fill="rgb(0,0,0)" stroke="rgb(0,0,0)" stroke-width="1" opacity="0" d="M 253.5 318 L 256.5 318 L 267.5 323 L 323 351.5 L 333 427.5 L 272 486.5 L 274.5 488 L 290 489.5 L 281.5 490 L 280.5 491 L 254.5 492 L 253.5 491 L 234.5 491 L 233.5 490 L 218 488.5 Q 222.5 486 230.5 487 L 234 485.5 L 174 426.5 L 185 354.5 L 187.5 351 L 253.5 318 Z " /><path fill="rgb(0,0,0)" stroke="rgb(0,0,0)" stroke-width="1" opacity="0" d="M 69.5 380 L 109.5 403 L 115.5 405 L 160.5 383 L 160 384.5 L 155 416.5 L 152 427.5 L 152 433.5 L 187.5 470 L 163.5 473 Q 134.5 459.5 109.5 442 L 86 420.5 L 73 399.5 L 69 385.5 L 69.5 380 Z " /><path fill="rgb(0,0,0)" stroke="rgb(0,0,0)" stroke-width="1" opacity="0" d="M 440.5 383 L 440 384.5 L 435 408.5 L 408.5 435 Q 388.6 454.6 361.5 467 L 344.5 472 L 328.5 473 L 319 470.5 L 356 435.5 L 349 385 L 395.5 407 L 440.5 383 Z " /><path fill="rgb(150,70,172)" stroke="rgb(150,70,172)" stroke-width="1" opacity="0.9372549019607843" d="M 232.5 0 L 276.5 0 L 277.5 1 L 292.5 2 L 316.5 7 L 349.5 18 Q 409.9 43.6 450 89.5 Q 470.8 112.7 486 141.5 L 498 168.5 L 505 193.5 L 504 193.5 L 503.5 192 L 485 192 L 487 202.5 L 486 202.5 L 484 192.5 L 476 171.5 L 459 136.5 L 455.5 132 L 435 121 L 443 171.5 L 409 204.5 L 420 192.5 L 395.5 192 L 379 207.5 L 421 164.5 L 421 162.5 L 407 81.5 L 408.5 82 L 416.5 86 L 409.5 78 Q 390.9 61.6 367.5 50 L 373.5 57 L 376 58.5 Q 376.8 61.1 373.5 60 L 372.5 61 L 365.5 61 L 357.5 63 L 350.5 63 L 349.5 64 L 342.5 64 L 341.5 65 L 334.5 65 L 326.5 67 L 319.5 67 L 318.5 68 L 291 71 L 256 140.5 L 290 203.5 L 289 203.5 L 282.5 192 L 262 192.5 L 270 207.5 L 268 206.5 L 255.5 182 L 240.5 209 L 240 207.5 L 248 192 L 228.5 192 L 227 193.5 L 220.5 206 L 220 204.5 L 250 148.5 L 254 138.5 L 217.5 71 L 134 60 L 135.5 57 L 143 50.5 L 141.5 50 Q 112.1 66.1 90 89.5 L 91.5 90 L 98.5 85 L 101 85 L 100 87.5 L 100 93.5 L 98 100.5 L 96 120.5 L 94 127.5 L 92 147.5 L 88 168.5 L 117 195.5 L 121 200.5 L 125 203.5 L 126.5 206 L 129 207.5 L 127.5 207 L 111.5 192 L 85.5 192 L 98.5 206 L 101 207.5 L 103 210.5 L 84.5 193 L 66 175.5 L 74 125.5 L 72.5 126 L 51 138 L 32 178.5 L 23.5 206 L 23 202.5 L 26 192 L 9.5 192 L 8 193.5 L 6.5 201 L 6 197.5 L 16 163.5 L 34 125.5 L 56 93.5 L 75 73.5 L 75 72 L 105.5 47 Q 123.9 33.9 145.5 24 L 167.5 15 L 197.5 6 L 223.5 1 L 231.5 1 L 232.5 0 Z M 232 21 L 231 22 L 218 23 L 204 27 L 190 35 L 181 45 L 183 46 L 190 46 L 198 48 L 205 48 L 206 49 L 232 52 L 256 97 L 278 54 L 283 51 L 320 47 L 330 45 L 329 43 L 314 30 L 294 23 L 280 22 L 279 21 L 232 21 Z " /><path fill="rgb(150,70,172)" stroke="rgb(150,70,172)" stroke-width="1" opacity="0.9372549019607843" d="M 505.5 195 L 508 205.5 L 507 205.5 L 505.5 195 Z " /><path fill="rgb(150,70,172)" stroke="rgb(150,70,172)" stroke-width="1" opacity="0.9372549019607843" d="M 5.5 202 L 6 205.5 L 5 205.5 L 5.5 202 Z " /><path fill="rgb(150,70,172)" stroke="rgb(150,70,172)" stroke-width="1" opacity="0.9372549019607843" d="M 290.5 205 L 293.5 209 L 291 208 L 290.5 205 Z " /><path fill="rgb(150,70,172)" stroke="rgb(150,70,172)" stroke-width="1" opacity="0.9372549019607843" d="M 507.5 207 L 509 209.5 L 508 209.5 L 507.5 207 Z " /><path fill="rgb(150,70,172)" stroke="rgb(150,70,172)" stroke-width="1" opacity="0.9372549019607843" d="M 412.5 208 L 413.5 210 L 412.5 208 Z " /><path fill="rgb(150,70,172)" stroke="rgb(150,70,172)" stroke-width="1" opacity="0.9372549019607843" d="M 422.5 210 L 425 210.5 L 422.5 211 L 422.5 210 Z " /><path fill="rgb(38,77,164)" stroke="rgb(38,77,164)" stroke-width="1" opacity="0.9450980392156862" d="M 6.5 317 L 7.5 319 L 6.5 317 Z " /><path fill="rgb(38,77,164)" stroke="rgb(38,77,164)" stroke-width="1" opacity="0.9450980392156862" d="M 209.5 317 L 208.5 319 L 207 318.5 L 209.5 317 Z " /><path fill="rgb(38,77,164)" stroke="rgb(38,77,164)" stroke-width="1" opacity="0.9450980392156862" d="M 247.5 320 L 249 320.5 L 246.5 322 L 247.5 320 Z " /><path fill="rgb(38,77,164)" stroke="rgb(38,77,164)" stroke-width="1" opacity="0.9450980392156862" d="M 28.5 321 L 42.5 356 L 43 353.5 L 40 341 L 114.5 382 L 182 349.5 L 187.5 321 L 188 324.5 L 186 330.5 L 185 341 L 206.5 341 L 229.5 329 L 228.5 331 L 186 352.5 L 174 426.5 L 234 485.5 L 230.5 487 Q 222.5 486 218 488.5 L 233.5 490 L 234.5 491 L 261.5 492 L 262.5 491 L 280.5 491 L 281.5 490 L 290 489.5 L 274.5 488 L 272 486.5 L 333 427.5 L 324 357.5 Q 321.7 356.3 323 351.5 L 321.5 350 L 270 324.5 L 271.5 324 L 304.5 341 L 326 341 L 323 322.5 L 324 322.5 L 329 351.5 L 330.5 353 L 392.5 384 L 395.5 384 L 469 346 L 467 358.5 L 468 358.5 L 482.5 323 L 483 324.5 L 477 341 L 497.5 341 L 498 338.5 L 502.5 327 L 503 328.5 Q 493.8 358.8 479 383.5 Q 459.9 415.4 433.5 440 Q 396.2 475.7 343.5 496 L 322.5 503 L 289.5 510 L 273.5 511 L 272.5 512 L 232.5 512 L 231.5 511 L 209.5 509 L 180.5 502 Q 157.3 494.7 137.5 484 Q 92 460.5 60 423.5 Q 29 389 13 339.5 L 14 339.5 L 14.5 341 L 34.5 341 L 34 339.5 L 28.5 321 Z M 70 380 L 69 386 L 73 400 L 86 421 L 110 442 Q 134 460 164 473 L 188 470 L 152 434 L 152 429 L 158 401 L 160 384 L 116 405 L 110 403 L 70 380 Z M 439 384 L 396 407 L 349 385 L 356 436 L 319 471 L 321 472 Q 327 470 329 473 L 345 472 L 362 467 Q 389 455 409 435 L 435 409 L 440 388 Q 441 383 439 384 Z " /><path fill="rgb(38,77,164)" stroke="rgb(38,77,164)" stroke-width="1" opacity="0.9450980392156862" d="M 8.5 322 L 13 337.5 L 12 337.5 L 8 325.5 L 8.5 322 Z " /><path fill="rgb(38,77,164)" stroke="rgb(38,77,164)" stroke-width="1" opacity="0.9450980392156862" d="M 243.5 322 L 242.5 324 L 237.5 326 L 237.5 325 L 243.5 322 Z " /><path fill="rgb(38,77,164)" stroke="rgb(38,77,164)" stroke-width="1" opacity="0.9450980392156862" d="M 503.5 323 L 504 324.5 L 502 325.5 L 503.5 323 Z " /><path fill="rgb(38,77,164)" stroke="rgb(38,77,164)" stroke-width="1" opacity="0.9450980392156862" d="M 235.5 326 L 234.5 328 L 231.5 329 L 231.5 328 L 235.5 326 Z " /><path fill="rgb(84,74,167)" stroke="rgb(84,74,167)" stroke-width="1" opacity="0.9725490196078431" d="M 7.5 192 L 9.5 192 L 25.5 192 L 26 194.5 L 23 205.5 L 23 207.5 L 22 209.5 L 23 211.5 L 21 218.5 L 21 240.5 L 24 253.5 L 31.5 268 L 53.5 221 L 103 212 L 99.5 206 L 87.5 195 Q 85.8 197.7 84 193.5 L 85.5 192 L 111.5 192 L 116.5 197 L 118 196.5 Q 115.8 197.8 118.5 199 L 120 198.5 Q 117.8 199.8 120.5 201 Q 121.8 198.8 123 201.5 Q 120.3 203.2 124.5 205 Q 125.8 202.8 127 205.5 L 126.5 207 L 130 208 Q 128.9 210.7 131.5 210 L 139.5 218 L 147.5 218 L 148.5 217 L 176.5 214 L 191.5 211 L 193.5 211 L 209.5 209 L 211.5 209 L 214.5 208 L 216.5 208 L 220 207.5 L 219.5 206 Q 221.8 206.8 221 204.5 L 221.5 202 L 223 202.5 L 225 197.5 L 224.5 196 L 226 196.5 L 228.5 192 L 247.5 192 L 248 193.5 L 230.5 227 L 199.5 231 L 198.5 232 L 184.5 233 L 180 234.5 L 216 268.5 L 209 314.5 L 207 318.5 L 208.5 319 L 221.5 311 L 255.5 295 L 302.5 318 L 302 316.5 L 294 268.5 L 330 234.5 L 326.5 233 L 312.5 232 L 311.5 231 L 278 227 L 270 210.5 L 270.5 209 L 269 208.5 L 269 206.5 L 267.5 203 L 266 203.5 L 267 201.5 L 265 201.5 L 266 199.5 L 264 199.5 L 265 197.5 L 263.5 195 L 262 195.5 L 263 193.5 L 262.5 192 L 282.5 192 L 284 193.5 L 285.5 197 L 287 196.5 L 286 198.5 L 289 204 L 291 204.5 L 291 206.5 Q 290.3 208.8 292.5 208 L 295.5 209 L 297.5 208 L 300.5 210 L 303.5 209 L 367.5 218 L 385.5 200 L 386.5 201 L 395.5 192 L 420 192.5 L 407 207.5 Q 412.1 206.9 413.5 210 L 415.5 209 L 417.5 210 L 419.5 210 L 458 216 L 479 263 Q 481.7 264.1 481 261.5 L 487 248.5 L 489 239.5 L 489 229.5 L 490 228.5 L 489 227.5 Q 490.3 217.2 488 210.5 Q 490.5 209 487 207.5 L 488 204 L 486 203.5 L 487 200.5 L 485 192 L 503.5 192 L 504 194 L 505.5 194 L 505 195.5 Q 505 202.5 508 206.5 L 508 208.5 L 510 215.5 L 511 231.5 L 512 232.5 L 512 281.5 L 511 282.5 L 511 290.5 L 507 313.5 L 505 321.5 L 502 325.5 L 502 327.5 L 498 341 L 477.5 341 L 477 339.5 L 483 323.5 L 482.5 322 L 484 321.5 L 484 319.5 L 484 314.5 L 486 310.5 L 488 298.5 L 487 298.5 L 482 311 L 479 309.5 L 445 236 L 373 223 Q 374.1 225.7 371.5 225 L 315 276.5 L 323 316.5 L 323 318.5 L 324 321.5 L 323 325.5 L 326 341 L 304.5 341 L 276.5 327 L 275 327.5 L 275.5 326 L 265 322.5 L 265.5 321 L 263.5 322 L 259 320 Q 260.1 316.5 252.5 318 L 244.5 323 L 242.5 323 L 237 325 L 236.5 327 L 234.5 327 L 231 328 L 230.5 330 L 228.5 330 L 206.5 341 L 185 341 L 188 321.5 L 187 319.5 Q 190.5 318 188 316.5 L 194 286.5 L 195 275.5 L 142.5 227 L 138.5 226 L 68.5 240 L 67 241.5 L 38 307.5 L 32.5 317 L 25.5 303 L 25 305.5 L 29 320.5 L 29 322.5 L 31.5 332 L 33 331.5 L 32 333.5 L 35 340.5 L 14 341 Q 15.1 338.3 12.5 339 L 13 337.5 L 9 322 Q 6 323.3 7 319.5 Q 9.5 318 6 316.5 L 1 289.5 L 1 280.5 L 0 279.5 L 0 235.5 L 1 234.5 L 1 225.5 L 2 224.5 L 3 211.5 L 5 207.5 L 4.5 206 Q 7.5 206.9 6 202.5 L 5.5 201 Q 8.5 201.9 7 197.5 L 8 193.5 L 7.5 192 Z " /></svg>