<svg width="512" height="512" version="1.1" xmlns="http://www.w3.org/2000/svg" desc="Created with imagetracer.js version 1.2.6" ><path fill="rgb(141,95,240)" stroke="rgb(141,95,240)" stroke-width="1" opacity="0.9019607843137255" d="M 235.5 41 L 276.5 41 L 277.5 42 L 291.5 43 L 314.5 48 L 342.5 58 Q 388.3 78.7 419 114.5 Q 449.3 148.2 464 197.5 L 468 214.5 L 470 234.5 L 471 235.5 L 471 276.5 L 470 277.5 L 468 297.5 L 463 317.5 Q 456.1 341.1 445 360.5 Q 425.9 394.4 397.5 419 Q 364.8 448.3 317.5 463 L 297.5 468 L 277.5 470 L 276.5 471 L 235.5 471 L 234.5 470 L 214.5 468 L 194.5 463 Q 171 456 151.5 445 Q 117.6 425.9 93 397.5 Q 63.7 364.8 49 317.5 L 44 297.5 L 42 277.5 L 41 276.5 L 41 235.5 L 42 234.5 L 42 226.5 L 43 225.5 L 44 214.5 L 48 197.5 Q 55.6 171.1 68 149.5 Q 87.2 116.2 115.5 92 Q 139 71.5 169.5 58 L 197.5 48 L 214.5 44 L 234.5 42 L 235.5 41 Z M 248 51 L 247 52 L 227 53 L 211 57 L 206 57 L 206 70 L 256 105 L 305 71 L 306 70 L 306 57 L 278 52 L 248 51 Z M 317 60 L 316 76 L 261 115 L 261 177 L 281 218 L 284 220 L 311 223 L 325 226 L 330 226 L 337 224 L 388 208 L 408 145 L 413 141 L 423 138 L 404 115 Q 386 95 363 81 L 336 67 L 317 60 Z M 194 61 Q 146 77 115 108 L 89 138 L 102 142 L 104 145 L 124 208 L 183 226 L 229 220 L 231 218 L 251 178 L 251 115 L 196 76 L 196 62 L 194 61 Z M 83 148 Q 67 170 59 200 L 54 221 L 52 242 L 64 246 L 113 210 L 95 155 L 95 151 L 83 148 Z M 427 148 L 419 151 L 409 177 L 399 210 L 449 246 L 460 242 L 458 221 L 453 200 L 445 177 L 431 150 Q 430 147 427 148 Z M 255 192 L 239 227 L 235 230 L 195 236 L 225 265 L 225 272 L 219 306 L 254 288 L 259 288 L 293 306 L 289 278 L 287 272 L 287 265 L 317 236 L 276 229 L 273 227 L 257 194 Q 258 191 255 192 Z M 121 218 L 68 257 L 62 257 L 53 254 L 51 254 L 53 286 L 60 317 L 67 336 L 78 358 L 93 378 L 99 369 L 101 367 L 169 367 L 207 313 L 214 269 L 182 237 L 121 218 Z M 390 218 L 335 236 L 332 236 L 298 270 L 306 315 L 342 366 L 344 367 L 412 367 L 420 378 Q 437 358 447 331 L 457 297 L 459 279 L 460 278 L 460 265 L 461 264 L 461 253 L 451 257 L 445 257 L 397 221 L 390 218 Z M 255 300 L 217 320 L 178 373 L 178 376 L 198 434 L 198 440 L 190 450 L 203 454 L 221 458 L 234 459 L 235 460 L 247 460 L 248 461 L 265 461 L 266 460 L 286 459 L 310 454 L 322 450 L 314 440 L 314 434 L 334 376 Q 335 371 332 370 L 299 324 L 291 317 L 258 300 L 255 300 Z M 106 377 L 99 388 L 108 398 Q 137 428 180 446 L 187 436 L 168 378 L 155 378 L 154 377 L 106 377 Z M 344 377 L 325 436 L 333 446 Q 370 430 398 404 L 413 388 L 406 379 L 406 377 L 344 377 Z " /><path fill="rgb(0,0,0)" stroke="rgb(0,0,0)" stroke-width="1" opacity="0" d="M 0 0 L 512 0 L 512 512 L 0 512 L 0 0 Z M 236 41 L 235 42 L 215 44 L 198 48 L 170 58 Q 139 72 116 92 Q 87 116 68 150 Q 56 171 48 198 L 44 215 L 43 226 L 42 227 L 42 235 L 41 236 L 41 277 L 42 278 L 44 298 L 49 318 Q 64 365 93 398 Q 118 426 152 445 Q 171 456 195 463 L 215 468 L 235 470 L 236 471 L 277 471 L 278 470 L 298 468 L 318 463 Q 365 448 398 419 Q 426 394 445 361 Q 456 341 463 318 L 468 298 L 470 278 L 471 277 L 471 236 L 470 235 L 468 215 L 464 198 Q 449 148 419 115 Q 388 79 343 58 L 315 48 L 292 43 L 278 42 L 277 41 L 236 41 Z " /><path fill="rgb(0,0,0)" stroke="rgb(0,0,0)" stroke-width="1" opacity="0" d="M 247.5 51 L 277.5 52 L 306 57 L 306 69.5 L 304.5 71 L 255.5 105 L 206 69.5 L 206 57 L 210.5 57 L 226.5 53 L 246.5 52 L 247.5 51 Z " /><path fill="rgb(0,0,0)" stroke="rgb(0,0,0)" stroke-width="1" opacity="0" d="M 316.5 60 L 335.5 67 L 362.5 81 Q 385.7 95.3 404 114.5 L 423 137.5 L 412.5 141 L 408 144.5 L 388 208 L 336.5 224 L 329.5 226 L 324.5 226 L 310.5 223 L 283.5 220 L 281 217.5 L 261 176.5 L 261 115 L 316 75.5 L 316.5 60 Z " /><path fill="rgb(0,0,0)" stroke="rgb(0,0,0)" stroke-width="1" opacity="0" d="M 193.5 61 L 196 61.5 L 196 75.5 L 251 115 L 251 177.5 L 231 217.5 L 228.5 220 L 182.5 226 L 124 208 L 104 144.5 L 101.5 142 L 89 137.5 L 114.5 108 Q 146.1 76.6 193.5 61 Z " /><path fill="rgb(0,0,0)" stroke="rgb(0,0,0)" stroke-width="1" opacity="0" d="M 82.5 148 L 95 151 L 95 154.5 L 113 209.5 L 63.5 246 L 52 242 L 54 220.5 L 59 199.5 Q 67.2 170.2 82.5 148 Z " /><path fill="rgb(0,0,0)" stroke="rgb(0,0,0)" stroke-width="1" opacity="0" d="M 426.5 148 Q 430.3 147.3 431 149.5 L 445 176.5 L 453 199.5 L 458 220.5 L 460 242 L 448.5 246 L 399 209.5 L 409 176.5 L 418.5 151 L 426.5 148 Z " /><path fill="rgb(0,0,0)" stroke="rgb(0,0,0)" stroke-width="1" opacity="0" d="M 255 192 Q 257.7 190.9 257 193.5 L 273 226.5 L 275.5 229 L 317 235.5 L 287 264.5 L 287 271.5 L 294 306.5 L 292.5 306 L 258.5 288 L 253.5 288 L 219 306 L 225 271.5 L 225 264.5 L 195 235.5 L 234.5 230 L 239 226.5 L 255 192 Z " /><path fill="rgb(0,0,0)" stroke="rgb(0,0,0)" stroke-width="1" opacity="0" d="M 120.5 218 L 181.5 237 L 214 268.5 L 207 312.5 L 168.5 367 L 100.5 367 L 99 368.5 L 92.5 378 L 78 357.5 L 67 335.5 L 60 316.5 L 53 285.5 L 51 253.5 L 52.5 254 L 61.5 257 L 67.5 257 L 120.5 218 Z " /><path fill="rgb(0,0,0)" stroke="rgb(0,0,0)" stroke-width="1" opacity="0" d="M 389.5 218 L 396.5 221 L 444.5 257 L 450.5 257 L 460.5 253 L 461 263.5 L 460 264.5 L 460 277.5 L 459 278.5 L 457 296.5 L 447 330.5 Q 436.6 357.6 419.5 378 L 411.5 367 L 343.5 367 L 342 365.5 L 306 314.5 L 298 269.5 L 331.5 236 L 334.5 236 L 389.5 218 Z " /><path fill="rgb(0,0,0)" stroke="rgb(0,0,0)" stroke-width="1" opacity="0" d="M 254.5 300 L 257.5 300 L 290.5 317 L 299 323.5 L 332 369.5 Q 334.6 370.9 334 375.5 L 314 433.5 L 314 439.5 L 322 449.5 L 309.5 454 L 285.5 459 L 265.5 460 L 264.5 461 L 247.5 461 L 246.5 460 L 234.5 460 L 233.5 459 L 220.5 458 L 202.5 454 L 190 449.5 L 198 439.5 L 198 433.5 L 178 375.5 L 178 372.5 L 216.5 320 L 254.5 300 Z " /><path fill="rgb(0,0,0)" stroke="rgb(0,0,0)" stroke-width="1" opacity="0" d="M 106 377 L 153.5 377 L 154.5 378 L 168 378 L 187 435.5 L 179.5 446 Q 137.2 428.3 108 397.5 L 99 387.5 L 106 377 Z " /><path fill="rgb(0,0,0)" stroke="rgb(0,0,0)" stroke-width="1" opacity="0" d="M 344 377 L 405.5 377 L 406 378.5 L 413 387.5 L 397.5 404 Q 370.5 430.5 332.5 446 L 325 435.5 L 344 377 Z " /></svg>