<?xml version="1.0" standalone="no"?>
<!DOCTYPE svg PUBLIC "-//W3C//DTD SVG 20010904//EN"
 "http://www.w3.org/TR/2001/REC-SVG-20010904/DTD/svg10.dtd">
<svg version="1.0" xmlns="http://www.w3.org/2000/svg"
 width="512.000000pt" height="512.000000pt" viewBox="0 0 512.000000 512.000000"
 preserveAspectRatio="xMidYMid meet">

<g transform="translate(0.000000,512.000000) scale(0.100000,-0.100000)"
fill="#000000" stroke="none">
<path d="M2330 5110 c-216 -22 -455 -76 -646 -145 -125 -45 -305 -131 -321
-152 -19 -24 -16 -77 5 -95 36 -31 52 -29 175 26 297 134 596 209 862 218 l80
3 3 -91 3 -90 -128 -80 c-70 -44 -247 -155 -393 -247 l-265 -166 -374 -51
c-205 -27 -378 -50 -385 -50 -6 0 -24 20 -40 45 -28 45 -28 46 -10 67 11 11
62 56 114 100 52 43 114 94 137 114 31 26 43 43 43 62 0 61 -56 95 -110 67
-60 -31 -228 -176 -355 -306 -205 -210 -340 -404 -465 -663 -119 -246 -190
-474 -232 -741 -31 -201 -31 -550 0 -750 53 -339 171 -667 344 -953 339 -561
928 -994 1573 -1155 231 -58 349 -71 610 -71 253 0 379 14 590 64 362 86 691
245 995 478 127 98 363 340 466 477 114 152 178 258 263 437 346 722 332 1561
-39 2276 -123 236 -250 411 -445 611 -404 415 -927 676 -1505 751 -114 15
-444 21 -550 10z m535 -161 c480 -58 955 -276 1310 -602 l69 -63 -29 -47 c-17
-26 -34 -47 -39 -47 -4 0 -177 23 -384 50 l-376 51 -388 242 -387 242 -1 98 0
98 73 -6 c39 -4 108 -11 152 -16z m-1040 -1149 c75 -179 136 -332 137 -340 1
-11 -442 -794 -468 -829 -3 -4 -625 -86 -698 -92 l-39 -4 -139 335 c-76 184
-136 342 -134 351 3 15 451 796 465 811 8 10 724 106 733 99 4 -3 68 -152 143
-331z m2346 232 c4 -4 111 -188 238 -408 l232 -402 -13 -46 c-15 -57 -3 -97
33 -110 43 -15 77 0 99 44 18 36 25 40 60 42 22 1 48 2 57 2 21 1 41 -75 69
-261 25 -162 25 -502 1 -663 -41 -267 -133 -559 -243 -772 l-19 -38 -80 46
c-44 25 -81 46 -82 48 -4 3 -33 759 -33 852 0 81 2 90 70 253 39 94 70 182 70
196 0 56 -86 89 -123 47 -9 -10 -45 -88 -80 -173 l-64 -154 -34 3 c-83 9 -700
90 -703 93 -18 24 -469 817 -469 825 0 9 254 628 274 665 7 14 48 10 371 -33
199 -27 366 -52 369 -56z m-915 -1059 c126 -219 229 -405 228 -413 0 -8 -103
-194 -229 -413 l-230 -397 -239 0 c-232 0 -240 -1 -263 -22 -28 -26 -30 -67
-4 -99 19 -24 21 -24 272 -29 l253 -5 214 -280 c117 -154 216 -285 219 -292 3
-7 -96 -143 -218 -303 l-223 -290 -476 0 -476 0 -222 289 c-122 159 -222 293
-222 298 0 4 99 136 219 293 l218 285 84 5 c46 3 94 10 105 17 39 23 45 67 13
107 -19 24 -26 26 -102 26 l-82 0 -230 397 c-126 219 -229 405 -229 413 -1 8
102 194 228 413 l229 397 467 0 467 0 229 -397z m-2914 168 c3 -3 70 -161 148
-351 l143 -345 -12 -370 c-7 -203 -15 -413 -18 -465 l-6 -96 -73 -42 c-40 -23
-78 -42 -84 -42 -12 0 -44 62 -98 190 -79 190 -136 393 -169 610 -21 141 -24
491 -5 625 15 101 50 284 58 297 6 9 105 0 116 -11z m801 -2001 l347 -183 228
-295 c125 -163 231 -301 235 -308 7 -12 -36 -114 -47 -114 -2 0 -56 18 -120
40 -423 146 -778 388 -1065 725 -81 95 -201 262 -201 280 0 7 35 33 78 58 l77
44 60 -32 c33 -17 216 -114 408 -215z m3383 198 c41 -23 74 -47 74 -53 0 -14
-80 -130 -158 -230 -85 -108 -316 -332 -432 -419 -205 -153 -430 -271 -675
-356 -65 -22 -119 -40 -121 -40 -4 0 -54 96 -54 103 0 2 105 140 234 308 l234
304 399 212 c219 116 404 212 412 212 7 1 47 -18 87 -41z"/>
<path d="M2510 3230 c-11 -11 -56 -92 -100 -180 -62 -124 -85 -161 -102 -165
-13 -3 -102 -18 -198 -35 -191 -32 -210 -42 -210 -101 0 -25 23 -52 141 -167
l142 -138 -32 -198 c-33 -198 -33 -199 -13 -225 36 -48 65 -42 253 59 l170 91
169 -91 c186 -100 216 -107 252 -59 19 25 19 27 -13 224 l-32 200 142 136
c120 116 141 141 141 167 0 61 -19 70 -210 103 -96 16 -185 32 -198 34 -17 4
-40 41 -102 165 -44 88 -89 169 -100 180 -26 26 -74 26 -100 0z m115 -346 c40
-77 68 -120 85 -128 14 -7 75 -21 135 -31 61 -9 116 -20 123 -24 10 -6 -14
-34 -82 -97 -53 -49 -99 -98 -102 -110 -3 -11 4 -78 16 -149 11 -70 18 -130
16 -132 -3 -3 -56 22 -119 56 -63 34 -124 61 -137 61 -12 0 -73 -28 -136 -61
-63 -34 -117 -59 -120 -57 -2 3 5 63 16 133 12 71 19 138 16 150 -3 12 -49 61
-102 110 -67 62 -92 90 -82 95 7 4 63 16 123 25 61 10 121 23 135 30 17 9 45
52 85 129 33 64 62 116 65 116 3 0 32 -52 65 -116z"/>
</g>
</svg>
