<svg width="512" height="512" version="1.1" xmlns="http://www.w3.org/2000/svg" desc="Created with imagetracer.js version 1.2.6" ><path fill="rgb(92,63,255)" stroke="rgb(92,63,255)" stroke-width="1" opacity="0.9333333333333333" d="M 291.5 84 L 306.5 84 L 307.5 85 L 326.5 86 L 348.5 91 L 365.5 97 Q 404.6 113.9 430 144.5 Q 451.5 169.5 463 204.5 L 468 224.5 L 469 238.5 L 470 239.5 L 470 271.5 L 464 303.5 L 452 333.5 Q 436.3 363.8 411.5 385 Q 390.5 403.5 362.5 415 L 331.5 424 L 298.5 427 L 293 423.5 L 292 416.5 L 293 414 L 296.5 412 L 310.5 412 L 311.5 411 L 325.5 410 L 339.5 407 L 343 404.5 L 367 360.5 L 343.5 331 L 262.5 331 L 258 335.5 L 234.5 366 L 228.5 367 L 223 362.5 L 223 356.5 L 250 321.5 L 225 247 L 221.5 247 L 168.5 230 L 164 226.5 L 163 220.5 L 166.5 216 L 171.5 215 L 226.5 233 L 230.5 233 L 291 184.5 L 291 133.5 L 289.5 132 L 248.5 114 L 235 106.5 L 234 99.5 L 238.5 95 L 253.5 90 L 272.5 86 L 290.5 85 L 291.5 84 Z M 357 110 L 308 133 L 306 134 L 306 185 L 376 231 L 380 231 L 419 218 L 421 216 L 421 209 L 424 194 L 426 172 L 427 171 L 427 166 L 418 154 Q 394 125 357 110 Z M 299 198 L 240 245 L 263 314 L 264 316 L 342 316 L 367 244 L 299 198 Z M 425 231 L 383 245 L 379 252 L 356 320 L 356 324 L 380 352 L 393 349 L 399 349 L 428 344 Q 442 325 450 299 L 454 281 L 456 259 L 425 231 Z " /><path fill="rgb(92,63,255)" stroke="rgb(92,63,255)" stroke-width="1" opacity="0.9333333333333333" d="M 174.5 91 L 212.5 91 L 217 94.5 L 218 100.5 L 214.5 105 L 211.5 106 L 174.5 106 L 170 102.5 L 169 96.5 L 172.5 92 L 174.5 91 Z " /><path fill="rgb(92,63,255)" stroke="rgb(92,63,255)" stroke-width="1" opacity="0.9333333333333333" d="M 100.5 118 L 197.5 118 L 203 121.5 L 204 128.5 L 199.5 133 L 98.5 133 L 94 128.5 L 94 123.5 L 97.5 119 L 100.5 118 Z " /><path fill="rgb(92,63,255)" stroke="rgb(92,63,255)" stroke-width="1" opacity="0.9333333333333333" d="M 64.5 146 L 111.5 146 L 115 149.5 Q 116.8 158.3 111.5 160 L 64.5 160 L 61 157.5 L 60 150.5 L 62.5 147 L 64.5 146 Z " /><path fill="rgb(92,63,255)" stroke="rgb(92,63,255)" stroke-width="1" opacity="0.9333333333333333" d="M 139.5 146 L 227.5 146 L 231 149.5 Q 232.8 158.3 227.5 160 L 139.5 160 L 136 157.5 L 135 150.5 L 137.5 147 L 139.5 146 Z " /><path fill="rgb(92,63,255)" stroke="rgb(92,63,255)" stroke-width="1" opacity="0.9333333333333333" d="M 197.5 173 Q 205.4 172.1 207 177.5 Q 208.8 186.3 203.5 188 L 197.5 189 L 193 185.5 L 192 178.5 L 195.5 174 L 197.5 173 Z " /><path fill="rgb(92,63,255)" stroke="rgb(92,63,255)" stroke-width="1" opacity="0.9333333333333333" d="M 228.5 173 L 246.5 173 L 251 176.5 L 252 182.5 L 248.5 187 L 245.5 188 L 229.5 188 L 224 183.5 Q 222.8 176.3 226.5 174 L 228.5 173 Z " /><path fill="rgb(92,63,255)" stroke="rgb(92,63,255)" stroke-width="1" opacity="0.9333333333333333" d="M 77.5 228 L 97.5 228 L 101 231.5 L 102 236.5 L 97.5 242 L 77.5 242 L 74 238.5 L 73 234.5 L 77.5 228 Z " /><path fill="rgb(92,63,255)" stroke="rgb(92,63,255)" stroke-width="1" opacity="0.9333333333333333" d="M 114.5 275 L 163.5 275 L 169 278.5 L 170 285.5 L 165.5 290 L 112.5 290 L 109 287.5 L 108 279.5 L 114.5 275 Z " /><path fill="rgb(92,63,255)" stroke="rgb(92,63,255)" stroke-width="1" opacity="0.9333333333333333" d="M 189.5 276 Q 198.3 274.3 200 279.5 L 201 283.5 L 197.5 290 L 189.5 291 Q 183.9 289.1 185 280.5 L 187 277 L 189.5 276 Z " /><path fill="rgb(92,63,255)" stroke="rgb(92,63,255)" stroke-width="1" opacity="0.9333333333333333" d="M 57.5 310 L 206.5 310 L 210 312.5 L 211 319.5 L 206.5 324 L 57.5 324 L 53 319.5 L 53 314.5 L 55.5 311 L 57.5 310 Z " /><path fill="rgb(92,63,255)" stroke="rgb(92,63,255)" stroke-width="1" opacity="0.9333333333333333" d="M 118.5 344 L 206.5 344 L 210 346.5 L 211 353.5 L 209 357 L 206.5 358 L 118.5 358 Q 114.5 356.1 114 350.5 L 118.5 344 Z " /><path fill="rgb(92,63,255)" stroke="rgb(92,63,255)" stroke-width="1" opacity="0.9333333333333333" d="M 112.5 378 L 158.5 378 L 162 380.5 L 163 387.5 L 159.5 392 L 111.5 392 L 108 388.5 Q 106.3 380.8 110.5 379 L 112.5 378 Z " /><path fill="rgb(92,63,255)" stroke="rgb(92,63,255)" stroke-width="1" opacity="0.9333333333333333" d="M 47.5 412 Q 54.4 411.1 56 415.5 L 57 422.5 L 53.5 427 L 48.5 428 L 43 424.5 L 42 416.5 L 47.5 412 Z " /><path fill="rgb(92,63,255)" stroke="rgb(92,63,255)" stroke-width="1" opacity="0.9333333333333333" d="M 71.5 412 L 267.5 412 L 271 414.5 L 272 422.5 L 265.5 427 L 73.5 427 L 67 422.5 Q 65.8 415.3 69.5 413 L 71.5 412 Z " /><path fill="rgb(0,0,0)" stroke="rgb(0,0,0)" stroke-width="1" opacity="0" d="M 0 0 L 512 0 L 512 512 L 0 512 L 0 0 Z M 292 84 L 291 85 L 273 86 L 254 90 L 239 95 L 234 100 L 235 107 L 249 114 L 290 132 L 291 134 L 291 185 L 231 233 L 227 233 L 172 215 L 167 216 L 163 221 L 164 227 L 169 230 L 222 247 L 225 247 L 250 322 L 223 357 L 223 363 L 229 367 L 235 366 L 258 336 L 263 331 L 344 331 L 367 361 L 343 405 L 340 407 L 326 410 L 312 411 L 311 412 L 297 412 L 293 414 L 292 417 L 293 424 L 299 427 L 332 424 L 363 415 Q 390 403 412 385 Q 436 364 452 334 L 464 304 L 470 272 L 470 240 L 469 239 L 468 225 L 463 205 Q 451 170 430 145 Q 405 114 366 97 L 349 91 L 327 86 L 308 85 L 307 84 L 292 84 Z M 175 91 L 173 92 L 169 97 L 170 103 L 175 106 L 212 106 L 215 105 L 218 101 L 217 95 L 213 91 L 175 91 Z M 101 118 L 98 119 L 94 124 L 94 129 L 99 133 L 200 133 L 204 129 L 203 122 L 198 118 L 101 118 Z M 65 146 L 63 147 L 60 151 L 61 158 L 65 160 L 112 160 Q 117 158 115 150 L 112 146 L 65 146 Z M 140 146 L 138 147 L 135 151 L 136 158 L 140 160 L 228 160 Q 233 158 231 150 L 228 146 L 140 146 Z M 198 173 L 196 174 L 192 179 L 193 186 L 198 189 L 204 188 Q 209 186 207 178 Q 205 172 198 173 Z M 229 173 L 227 174 Q 223 176 224 184 L 230 188 L 246 188 L 249 187 L 252 183 L 251 177 L 247 173 L 229 173 Z M 78 228 L 73 235 L 74 239 L 78 242 L 98 242 L 102 237 L 101 232 L 98 228 L 78 228 Z M 115 275 L 108 280 L 109 288 L 113 290 L 166 290 L 170 286 L 169 279 L 164 275 L 115 275 Z M 190 276 L 187 277 L 185 281 Q 184 289 190 291 L 198 290 L 201 284 L 200 280 Q 198 274 190 276 Z M 58 310 L 56 311 L 53 315 L 53 320 L 58 324 L 207 324 L 211 320 L 210 313 L 207 310 L 58 310 Z M 119 344 L 114 351 Q 114 356 119 358 L 207 358 L 209 357 L 211 354 L 210 347 L 207 344 L 119 344 Z M 113 378 L 111 379 Q 106 381 108 389 L 112 392 L 160 392 L 163 388 L 162 381 L 159 378 L 113 378 Z M 48 412 L 42 417 L 43 425 L 49 428 L 54 427 L 57 423 L 56 416 Q 54 411 48 412 Z M 72 412 L 70 413 Q 66 415 67 423 L 74 427 L 266 427 L 272 423 L 271 415 L 268 412 L 72 412 Z " /><path fill="rgb(0,0,0)" stroke="rgb(0,0,0)" stroke-width="1" opacity="0" d="M 356.5 110 Q 394.3 124.7 418 153.5 L 427 165.5 L 427 170.5 L 426 171.5 L 424 193.5 L 421 208.5 L 421 215.5 L 418.5 218 L 379.5 231 L 375.5 231 L 306 185 L 306 133.5 L 307.5 133 L 356.5 110 Z " /><path fill="rgb(0,0,0)" stroke="rgb(0,0,0)" stroke-width="1" opacity="0" d="M 298.5 198 L 367 243.5 L 342 316 L 263.5 316 L 263 313.5 L 240 244.5 L 298.5 198 Z " /><path fill="rgb(0,0,0)" stroke="rgb(0,0,0)" stroke-width="1" opacity="0" d="M 424.5 231 L 456 258.5 L 454 280.5 L 450 298.5 Q 442.3 324.8 427.5 344 L 398.5 349 L 392.5 349 L 379.5 352 L 356 323.5 L 356 319.5 L 379 251.5 L 382.5 245 L 424.5 231 Z " /></svg>