<svg width="512" height="512" version="1.1" xmlns="http://www.w3.org/2000/svg" desc="Created with imagetracer.js version 1.2.6" ><path fill="rgb(0,0,0)" stroke="rgb(0,0,0)" stroke-width="1" opacity="0" d="M 0 0 L 235 0.5 L 218.5 2 L 197.5 6 L 185.5 9 L 152.5 21 Q 99.2 45.2 63 86.5 Q 36.1 116.6 19 156.5 Q 10.4 176.9 5 200.5 L 0.5 233 L 0 0 Z " /><path fill="rgb(0,0,0)" stroke="rgb(0,0,0)" stroke-width="1" opacity="0" d="M 277.5 0 L 512 0 L 512 233.5 L 511 233.5 L 510 217.5 L 505 192.5 L 499 172.5 L 488 145.5 Q 464.8 98.2 427.5 65 Q 398.8 39.2 361.5 22 L 322.5 8 L 293.5 2 L 277.5 1 L 277.5 0 Z " /><path fill="rgb(0,0,0)" stroke="rgb(0,0,0)" stroke-width="1" opacity="0" d="M 239.5 17 L 260.5 17 L 320 76.5 L 300 124 L 213.5 139 L 207.5 139 L 152 105 L 190 26 L 209.5 21 L 227.5 19 L 228.5 18 L 238.5 18 L 239.5 17 Z " /><path fill="rgb(0,0,0)" stroke="rgb(0,0,0)" stroke-width="1" opacity="0" d="M 288.5 19 L 315.5 24 L 350.5 36 Q 385.6 51.4 412 75.5 L 405.5 76 L 397.5 74 L 390.5 74 L 389.5 73 L 367.5 71 L 366.5 70 L 334.5 66 L 288.5 19 Z " /><path fill="rgb(0,0,0)" stroke="rgb(0,0,0)" stroke-width="1" opacity="0" d="M 166.5 34 L 167 35.5 L 133 103 L 131.5 103 L 62.5 165 L 35.5 165 L 36 163.5 Q 57.8 111.3 97.5 77 Q 126.8 50.3 166.5 34 Z " /><path fill="rgb(0,0,0)" stroke="rgb(0,0,0)" stroke-width="1" opacity="0" d="M 336.5 84 L 435 97 L 434 101.5 L 434 116.5 L 433 117.5 L 430 180.5 L 429 183 L 378.5 196 L 374.5 196 L 316 129.5 L 336.5 84 Z " /><path fill="rgb(0,0,0)" stroke="rgb(0,0,0)" stroke-width="1" opacity="0" d="M 141.5 118 L 196 152 L 175 240 L 143.5 242 L 142.5 243 L 132.5 243 L 131.5 244 L 121.5 244 L 120.5 245 L 110.5 245 L 109.5 246 L 99.5 246 L 97 247 L 76 176.5 L 141.5 118 Z " /><path fill="rgb(0,0,0)" stroke="rgb(0,0,0)" stroke-width="1" opacity="0" d="M 451.5 119 Q 473 148 485 186.5 L 493 222.5 L 494 240.5 L 495 241.5 L 495 258 L 483.5 262 L 447 189.5 L 447 173.5 L 448 172.5 L 450 125.5 L 451.5 119 Z " /><path fill="rgb(0,0,0)" stroke="rgb(0,0,0)" stroke-width="1" opacity="0" d="M 279.5 145 Q 283.9 143.5 283 146.5 L 261 180 L 211.5 175 L 209 173.5 L 213 157.5 L 214.5 156 L 278.5 146 L 279.5 145 Z " /><path fill="rgb(0,0,0)" stroke="rgb(0,0,0)" stroke-width="1" opacity="0" d="M 307.5 148 L 357 203.5 L 355.5 203 L 314.5 192 L 313 190.5 L 307.5 148 Z " /><path fill="rgb(0,0,0)" stroke="rgb(0,0,0)" stroke-width="1" opacity="0" d="M 291.5 165 L 293 169.5 L 296 196.5 L 297 201.5 L 299.5 205 L 306.5 208 L 337.5 216 L 342 218.5 L 310.5 239 L 306 243.5 L 305 245.5 L 304.5 284 L 276.5 256 L 268.5 256 L 232.5 267 L 232 265.5 L 248 234.5 L 248 227.5 L 220 193 L 222.5 194 L 229.5 194 L 230.5 195 L 237.5 195 L 238.5 196 L 265.5 199 L 273 193.5 L 291.5 165 Z " /><path fill="rgb(0,0,0)" stroke="rgb(0,0,0)" stroke-width="1" opacity="0" d="M 29.5 182 L 59.5 182 L 60 185.5 L 82 256.5 Q 70.1 293.6 61 333.5 L 58.5 338 L 31.5 338 L 31 335.5 L 25 318.5 L 19 289.5 L 18 270.5 L 17 269.5 L 17 241.5 L 18 240.5 L 18 230.5 L 19 229.5 L 21 210.5 L 27 186.5 L 29.5 182 Z " /><path fill="rgb(0,0,0)" stroke="rgb(0,0,0)" stroke-width="1" opacity="0" d="M 432.5 200 L 469 271.5 L 469 274.5 L 434 356.5 L 432 364 L 385 370 L 356 303.5 L 378 215.5 L 380.5 213 L 432.5 200 Z " /><path fill="rgb(0,0,0)" stroke="rgb(0,0,0)" stroke-width="1" opacity="0" d="M 202.5 201 L 229 232.5 L 212 267 L 208 264.5 L 192 246.5 L 192 241.5 L 202.5 201 Z " /><path fill="rgb(0,0,0)" stroke="rgb(0,0,0)" stroke-width="1" opacity="0" d="M 354.5 231 Q 357.1 230.2 356 233.5 L 340 298 L 323.5 301 L 323 252.5 L 354.5 231 Z " /><path fill="rgb(0,0,0)" stroke="rgb(0,0,0)" stroke-width="1" opacity="0" d="M 171.5 257 L 178.5 257 L 179 258.5 L 238 325.5 L 217 402.5 L 214.5 406 L 143 420 L 143 418.5 L 79 348.5 L 76 342.5 L 97 265.5 L 98.5 264 L 126.5 262 L 127.5 261 L 137.5 261 L 138.5 260 L 148.5 260 L 149.5 259 L 159.5 259 L 160.5 258 L 170.5 258 L 171.5 257 Z " /><path fill="rgb(0,0,0)" stroke="rgb(0,0,0)" stroke-width="1" opacity="0" d="M 269.5 274 L 299.5 305 L 294.5 305 L 251.5 313 L 228 286.5 L 269.5 274 Z " /><path fill="rgb(0,0,0)" stroke="rgb(0,0,0)" stroke-width="1" opacity="0" d="M 492.5 277 Q 495.9 276.1 494 281.5 L 493 282.5 L 493 289.5 L 490 306.5 L 481 337.5 Q 469.4 369.4 450.5 394 L 447 371.5 L 486.5 279 L 492.5 277 Z " /><path fill="rgb(0,0,0)" stroke="rgb(0,0,0)" stroke-width="1" opacity="0" d="M 0.5 278 L 3 301.5 L 10 330.5 Q 18 356.5 30 378.5 Q 53 420 87.5 450 Q 117.3 476.2 156.5 493 Q 176.9 501.6 200.5 507 L 233 511.5 L 0 512 L 0.5 278 Z " /><path fill="rgb(0,0,0)" stroke="rgb(0,0,0)" stroke-width="1" opacity="0" d="M 511.5 279 L 512 512 L 279 511.5 L 301.5 509 L 330.5 502 Q 356.5 494 378.5 482 Q 420 459 450 424.5 Q 476.2 394.7 493 355.5 Q 501.6 335.1 507 311.5 L 511.5 279 Z " /><path fill="rgb(0,0,0)" stroke="rgb(0,0,0)" stroke-width="1" opacity="0" d="M 340.5 315 Q 343.1 314.2 342 317.5 L 369 377.5 L 310.5 430 L 304.5 435 L 301.5 435 L 234 408 L 254 331.5 L 256.5 329 L 268.5 328 L 292.5 323 L 298.5 323 L 322.5 318 L 334.5 317 L 340.5 315 Z " /><path fill="rgb(0,0,0)" stroke="rgb(0,0,0)" stroke-width="1" opacity="0" d="M 39.5 356 L 62.5 356 L 66 359.5 L 132 433.5 L 132 459.5 L 129.5 458 Q 99.9 440.6 78 415.5 Q 53.9 389.5 39.5 356 Z " /><path fill="rgb(0,0,0)" stroke="rgb(0,0,0)" stroke-width="1" opacity="0" d="M 424.5 382 L 431 382 L 431 387.5 L 436 412.5 L 415.5 434 Q 375.3 471.3 314.5 488 L 314 450.5 L 382.5 389 L 389.5 387 L 395.5 387 L 424.5 382 Z " /><path fill="rgb(0,0,0)" stroke="rgb(0,0,0)" stroke-width="1" opacity="0" d="M 220.5 422 L 225.5 423 L 297 452.5 L 297 490.5 L 295.5 492 L 282.5 493 L 281.5 494 L 270.5 494 L 269.5 495 L 241.5 495 L 240.5 494 L 222.5 493 L 193.5 487 Q 169.2 480.1 149 470 L 149 437.5 L 150.5 436 L 220.5 422 Z " /><path fill="rgb(111,40,142)" stroke="rgb(111,40,142)" stroke-width="1" opacity="0.9450980392156862" d="M 235.5 0 L 276.5 0 L 277.5 1 L 293.5 2 L 322.5 8 L 354.5 19 Q 410.4 43.1 448 85.5 Q 471.6 111.9 488 145.5 L 501 178.5 L 506 196.5 L 507 207 L 491.5 207 L 490.5 208 L 490 205.5 Q 478.2 154.8 451.5 119 L 450 125.5 L 450 140.5 L 449 141.5 L 449 156.5 L 448 157.5 L 448 172.5 L 447 173.5 L 447 189.5 L 454 202.5 L 453.5 204 L 455 204.5 L 454.5 206 L 456 206.5 L 437.5 207 L 432.5 200 L 403.5 208 L 402.5 207 L 306.5 207 L 305.5 206 L 303.5 207 Q 302.4 204.2 299 205 L 296 196.5 L 296 190.5 L 291.5 165 L 275 190.5 L 268.5 198 L 262.5 199 L 261.5 198 L 254.5 198 L 253.5 197 L 246.5 197 L 245.5 196 L 238.5 196 L 237.5 195 L 219.5 193 L 225 199.5 L 229 204.5 L 229 207 L 209.5 207 L 208.5 206 L 207 206.5 L 202.5 200 L 201 207 L 184.5 207 L 183 205.5 L 196 152 L 141.5 118 L 76 176.5 L 84 202.5 L 83.5 204 Q 86.5 203.2 85 207 L 67.5 207 L 67 204.5 L 64 198.5 L 60 182 L 29.5 182 L 28 183.5 L 23 204.5 L 20.5 207 L 5.5 207 L 4 205.5 L 15 166.5 Q 23 145 34 126.5 Q 55.6 90.1 86.5 63 Q 117.8 35.3 159.5 18 L 197.5 6 L 225.5 1 L 234.5 1 L 235.5 0 Z M 240 17 L 239 18 L 229 18 L 228 19 L 210 21 L 190 26 L 152 105 L 208 139 L 214 139 L 300 124 L 320 77 L 261 17 L 240 17 Z M 289 19 L 335 66 L 367 70 L 368 71 L 390 73 L 391 74 L 398 74 L 406 76 L 412 76 Q 386 51 351 36 L 316 24 L 289 19 Z M 167 34 Q 127 50 98 77 Q 58 111 36 164 L 36 165 L 63 165 L 132 103 L 133 103 L 167 36 L 167 34 Z M 337 84 L 316 130 L 376 197 L 429 183 L 430 181 L 433 118 L 434 117 L 434 102 L 435 97 L 337 84 Z M 280 145 L 279 146 L 215 156 L 213 158 L 209 174 L 212 175 L 244 178 L 252 180 L 261 180 L 283 147 Q 284 143 280 145 Z M 308 148 L 313 191 L 318 193 L 354 203 L 357 204 L 357 203 L 354 201 L 348 194 Q 349 191 346 192 L 340 185 Q 341 182 338 183 L 338 182 L 308 148 Z " /><path fill="rgb(160,90,83)" stroke="rgb(160,90,83)" stroke-width="1" opacity="0.9411764705882353" d="M 355.5 201 L 356.5 203 L 355.5 201 Z " /><path fill="rgb(160,90,83)" stroke="rgb(160,90,83)" stroke-width="1" opacity="0.9411764705882353" d="M 22.5 205 L 22 206.5 L 19 222.5 L 19 229.5 L 18 230.5 L 18 240.5 L 17 241.5 L 17 269.5 L 18 270.5 L 18 281.5 L 19 282.5 L 19 289.5 L 22 306.5 L 31 338 L 58.5 338 L 60 336.5 L 82 256.5 L 67 207.5 L 85 207 L 97 247 L 99.5 246 L 109.5 246 L 110.5 245 L 120.5 245 L 121.5 244 L 131.5 244 L 132.5 243 L 142.5 243 L 143.5 242 L 175 240 L 183.5 206 L 184.5 207 L 201 207 L 192 241.5 L 192 246.5 L 210.5 267 Q 212.8 267.8 212 265.5 L 229 232.5 L 216 217.5 L 213 212 Q 210.3 213.1 211 210.5 L 208 206.5 L 209.5 207 L 228.5 207 L 229 205.5 L 230 205.5 L 246 224.5 Q 249 227.5 248 234.5 L 232 266.5 L 233.5 266 L 268.5 256 L 276.5 256 L 305 283.5 L 305 245.5 L 310.5 239 L 342 218.5 L 337.5 216 L 306.5 208 L 305 206.5 L 306.5 207 L 403 207.5 L 379 213 L 356 305.5 L 381 360.5 L 380.5 362 Q 383.1 361.3 382 364 L 364.5 364 L 363.5 365 L 363 362.5 L 342 317.5 L 342 315 L 334.5 317 L 322.5 318 L 316.5 320 L 256.5 329 L 254 331.5 L 249 352.5 L 245 364 L 227 363.5 L 229 362.5 L 229 358.5 L 238 324.5 L 179 258.5 L 179 257 L 160.5 258 L 159.5 259 L 149.5 259 L 148.5 260 L 138.5 260 L 137.5 261 L 127.5 261 L 126.5 262 L 116.5 262 L 115.5 263 L 105.5 263 Q 104 265.5 98.5 264 L 97 265.5 L 76 344.5 L 92 363.5 L 71.5 364 Q 69.3 359.7 67 361.5 L 62.5 356 L 39 356.5 Q 41.8 358.5 41 363 L 43 363.5 L 24.5 364 L 23.5 365 L 23 363.5 L 24 362.5 L 21 359.5 Q 8.9 333.6 3 301.5 L 2 288.5 L 1 287.5 L 1 278.5 L 0 277.5 L 0 233.5 L 1 232.5 L 2 216.5 L 4 211.5 L 4 209.5 L 4.5 206 L 5.5 207 L 20.5 207 L 22.5 205 Z M 355 231 L 323 253 L 324 301 L 340 298 L 356 234 Q 357 230 355 231 Z M 270 274 L 228 287 L 252 313 L 295 305 L 300 305 L 270 274 Z " /><path fill="rgb(160,90,83)" stroke="rgb(160,90,83)" stroke-width="1" opacity="0.9411764705882353" d="M 507.5 205 L 511 224.5 L 511 233.5 L 512 234.5 L 512 278.5 L 511 279.5 L 509 301.5 L 504 323.5 L 497 345.5 L 488 364 L 470 363.5 L 471 360.5 L 478 345.5 L 487 318.5 L 491 301.5 L 494 277 L 485 280.5 L 452 361 L 450 361 L 449.5 364 L 433 364 L 432 361.5 L 469 274.5 L 469 271.5 L 436 206.5 L 437.5 207 L 455.5 207 L 456 208.5 L 483.5 262 L 495 258 L 494 230.5 L 490 208.5 L 490.5 206 L 491.5 207 L 507 207 L 507.5 205 Z " /><path fill="rgb(160,90,83)" stroke="rgb(160,90,83)" stroke-width="1" opacity="0.9411764705882353" d="M 95.5 366 L 96.5 368 L 95.5 366 Z " /><path fill="rgb(203,135,30)" stroke="rgb(203,135,30)" stroke-width="1" opacity="0.9372549019607843" d="M 22.5 361 L 23.5 363 L 22.5 361 Z " /><path fill="rgb(203,135,30)" stroke="rgb(203,135,30)" stroke-width="1" opacity="0.9372549019607843" d="M 68.5 361 L 71.5 364 L 91.5 364 L 90.5 361 L 143 418.5 L 143 420 L 214.5 406 L 216 404.5 L 227 364 L 244.5 364 L 245 362.5 L 246 362.5 L 234 408 L 301.5 435 L 304.5 435 L 369 377.5 L 363 363.5 L 364.5 364 L 382.5 364 L 383 365.5 L 385 370 L 432 364 L 432.5 362 L 433 364 L 449.5 364 L 450 361.5 L 451 361.5 L 447 371.5 L 447 376.5 L 450.5 394 L 459 382.5 L 470.5 362 L 470.5 364 L 487.5 364 L 488 362.5 L 490 361.5 Q 466.4 413.9 425.5 449 Q 386.8 484.3 330.5 502 L 301.5 509 L 279.5 511 L 278.5 512 L 233.5 512 L 232.5 511 L 224.5 511 L 223.5 510 L 205.5 508 L 181.5 502 Q 155.5 494 133.5 482 Q 92 459 62 424.5 Q 38.1 398.5 24 364 L 42.5 364 L 44 365.5 Q 64.2 405.8 96.5 434 L 131.5 460 L 132 433.5 L 84 380.5 L 77 371 Q 74.3 372.1 75 369.5 L 68 362.5 L 68.5 361 Z M 425 382 L 424 383 L 384 388 L 314 451 L 315 488 Q 375 471 416 434 L 436 413 L 431 388 L 431 382 L 425 382 Z M 221 422 L 151 436 L 149 438 L 149 470 Q 169 480 194 487 L 223 493 L 241 494 L 242 495 L 270 495 L 271 494 L 282 494 L 283 493 L 296 492 L 297 491 L 297 453 L 226 423 L 221 422 Z " /></svg>