<svg width="512" height="512" version="1.1" xmlns="http://www.w3.org/2000/svg" desc="Created with imagetracer.js version 1.2.6" ><path fill="rgb(130,194,231)" stroke="rgb(130,194,231)" stroke-width="1" opacity="0.9372549019607843" d="M 239 43 L 249 43.5 L 246 44 L 246 59.5 L 248.5 60 L 248.5 61 L 244.5 60 L 239 61 L 239 43 Z " /><path fill="rgb(130,194,231)" stroke="rgb(130,194,231)" stroke-width="1" opacity="0.9372549019607843" d="M 213 77 L 238.5 77 L 239.5 78 L 248 78.5 L 246 79 L 246 94.5 L 248.5 95 L 248.5 96 L 213 95 L 213 77 Z " /><path fill="rgb(130,194,231)" stroke="rgb(130,194,231)" stroke-width="1" opacity="0.9372549019607843" d="M 163.5 111 L 193.5 111 L 194.5 112 L 203.5 112 L 234.5 119 L 247 124.5 L 246 125.5 L 246 163 L 248 163.5 L 188 194.5 L 188 215.5 L 190.5 218 L 212.5 230 L 236.5 230 L 237.5 229 L 247.5 229 L 247.5 230 L 246 230.5 L 246 246 L 250 246.5 L 227 248 L 245.5 299 L 247.5 298 L 247.5 299 L 246 299.5 L 246 328.5 L 247 331.5 L 244 339.5 L 241 356 Q 243.7 354.9 243 357.5 L 249 364.5 L 247 363.5 L 246.5 362 L 246 400.5 L 249 399.5 L 248 402 L 246 402 L 246 404 Q 243.3 402.9 244 405.5 L 214 439.5 L 220.5 446 L 223.5 446 L 246 438 L 246.5 456 L 248.5 455 L 247.5 457 L 227.5 464 L 208.5 468 L 194.5 469 L 193.5 470 L 167.5 470 L 166.5 469 L 156.5 469 L 139.5 466 L 108.5 456 Q 71.9 440.1 47 412.5 Q 25.3 389.2 12 357.5 L 2 322.5 L 1 308.5 L 0 307.5 L 0 273.5 L 1 272.5 L 3 253.5 L 8 234.5 L 22 202.5 Q 37.3 175.8 59.5 156 Q 81.4 136.4 110.5 124 L 134.5 116 L 163.5 111 Z M 166 129 L 135 135 L 122 140 L 120 141 L 120 148 L 180 178 L 238 149 L 239 148 L 239 140 L 225 135 L 208 131 L 195 130 L 194 129 L 166 129 Z M 102 149 Q 85 158 72 171 Q 71 173 74 172 L 77 177 L 77 242 L 102 254 L 169 218 L 170 217 L 170 193 L 107 162 Q 101 159 102 149 Z M 53 189 Q 38 208 28 234 L 20 263 L 18 285 L 24 287 L 59 245 L 59 190 L 59 189 L 53 189 Z M 179 233 L 113 270 L 135 347 L 136 348 L 224 348 L 233 316 L 230 311 L 207 247 L 182 233 L 179 233 Z M 72 259 L 36 302 L 29 308 L 21 307 L 19 307 L 21 324 L 28 344 L 36 337 L 42 337 L 104 370 L 118 355 L 95 272 L 72 259 Z M 41 357 L 35 363 Q 47 386 64 404 Q 92 433 136 446 L 139 446 L 145 440 L 110 400 L 99 388 L 41 357 Z M 133 366 L 118 382 L 167 437 Q 168 448 160 451 L 169 452 L 191 452 L 199 451 L 192 443 L 192 437 L 197 430 L 241 382 L 231 371 L 227 366 L 133 366 Z " /><path fill="rgb(130,194,231)" stroke="rgb(130,194,231)" stroke-width="1" opacity="0.9372549019607843" d="M 248.5 323 L 249 325.5 L 247.5 328 L 247 326.5 L 248.5 323 Z " /><path fill="rgb(130,194,231)" stroke="rgb(130,194,231)" stroke-width="1" opacity="0.9372549019607843" d="M 250.5 435 L 249.5 437 L 247.5 438 L 248.5 436 L 250.5 435 Z " /><path fill="rgb(0,0,0)" stroke="rgb(0,0,0)" stroke-width="1" opacity="0" d="M 0 0 L 511.5 0 L 512 0.5 L 512 168.5 L 511 168.5 L 509 156.5 L 503 142.5 Q 493 125 478.5 112 Q 461.2 96.2 439.5 85 L 416.5 74 L 379.5 61 L 352.5 54 L 320.5 48 L 313.5 48 L 296.5 45 L 272.5 44 L 271.5 43 L 239 43 L 239 61 L 268.5 61 L 269.5 62 L 281.5 62 L 282.5 63 L 309.5 65 L 310.5 66 L 333.5 69 L 363.5 76 L 392.5 85 L 417.5 95 L 436.5 105 Q 455.9 115.6 471 130.5 Q 470.3 132.8 472.5 132 Q 484.3 143.3 491 159.5 Q 496.3 170.7 494 189.5 Q 488.1 212.1 473.5 226 L 471 227.5 L 469.5 230 Q 450.4 247.9 425.5 260 Q 403.1 271.1 377.5 279 L 343.5 288 L 333.5 289 L 316.5 293 L 309.5 293 L 293.5 296 L 270.5 297 L 269.5 298 L 245 298 L 227 248 L 250.5 247 L 251.5 246 L 261.5 246 L 262.5 245 L 275.5 244 L 297.5 240 L 323.5 233 Q 344.6 226.1 362.5 216 Q 377.8 207.3 389 194.5 Q 400.5 183 402 161.5 Q 399.3 159.8 401 153.5 L 396 140.5 Q 388.9 128.6 378.5 120 Q 362.6 107.4 342.5 99 L 306.5 87 L 293.5 85 L 288.5 83 L 283.5 83 L 270.5 80 L 253.5 79 L 252.5 78 L 213 77 L 213 95 L 237.5 95 L 238.5 96 L 251.5 96 L 252.5 97 L 260.5 97 L 261.5 98 L 268.5 98 L 269.5 99 L 286.5 101 L 326.5 112 Q 357.4 122.6 377 144.5 L 383 156.5 L 383 168.5 Q 377.7 183.7 365.5 192 Q 353.7 202.2 338 207 Q 325.8 182 306.5 163 Q 289.8 146.2 268.5 134 L 250.5 125 L 234.5 119 L 203.5 112 L 194.5 112 L 193.5 111 L 163.5 111 L 162.5 112 L 147.5 113 Q 140.5 116.5 130.5 117 Q 111.6 122.6 95.5 131 Q 65.5 147 44 171.5 Q 25.8 191.8 14 218.5 L 8 234.5 L 3 253.5 L 0.5 273 L 0 0 Z " /><path fill="rgb(0,0,0)" stroke="rgb(0,0,0)" stroke-width="1" opacity="0" d="M 165.5 129 L 193.5 129 L 194.5 130 L 207.5 131 L 224.5 135 L 239 140 L 239 147.5 L 237.5 149 L 179.5 178 L 120 147.5 L 120 140.5 L 121.5 140 L 134.5 135 L 165.5 129 Z " /><path fill="rgb(0,0,0)" stroke="rgb(0,0,0)" stroke-width="1" opacity="0" d="M 101.5 149 Q 100.5 159 106.5 162 L 170 193 L 170 216.5 L 168.5 218 L 101.5 254 L 77 241.5 L 77 176.5 L 73.5 172 Q 71.3 172.8 72 170.5 Q 84.5 157.5 101.5 149 Z " /><path fill="rgb(0,0,0)" stroke="rgb(0,0,0)" stroke-width="1" opacity="0" d="M 257.5 149 Q 274.2 157.8 287 170.5 L 283 173 L 281 177.5 L 281 225 L 260.5 227 L 259.5 228 L 250.5 228 L 249.5 229 L 212.5 230 L 188 215.5 L 188 194.5 L 189.5 193 L 252.5 162 L 255 159.5 L 257.5 149 Z " /><path fill="rgb(0,0,0)" stroke="rgb(0,0,0)" stroke-width="1" opacity="0" d="M 53 189 L 58.5 189 L 59 189.5 L 59 244.5 L 23.5 287 L 18 284.5 L 20 262.5 L 28 233.5 Q 37.7 208.1 53 189 Z " /><path fill="rgb(0,0,0)" stroke="rgb(0,0,0)" stroke-width="1" opacity="0" d="M 299 189 Q 305.3 187.5 307 191.5 L 321 213.5 L 319.5 215 L 299.5 221 L 299 189 Z " /><path fill="rgb(0,0,0)" stroke="rgb(0,0,0)" stroke-width="1" opacity="0" d="M 511.5 190 L 512 290.5 L 511 290.5 L 510 284.5 L 503 270 Q 500.3 271.1 501 268.5 Q 491.1 255.9 477 247.5 L 487 238.5 L 489 235.5 L 495 227 Q 497.7 228.1 497 225.5 L 508 205.5 L 511.5 190 Z " /><path fill="rgb(0,0,0)" stroke="rgb(0,0,0)" stroke-width="1" opacity="0" d="M 178.5 233 L 181.5 233 L 207 247 L 230 310.5 L 233 314.5 L 224 348 L 135.5 348 L 135 346.5 L 113 269.5 L 178.5 233 Z " /><path fill="rgb(0,0,0)" stroke="rgb(0,0,0)" stroke-width="1" opacity="0" d="M 71.5 259 L 95 271.5 L 118 354.5 L 103.5 370 L 41.5 337 L 35.5 337 L 27.5 344 L 21 323.5 L 19 306.5 L 20.5 307 L 28.5 308 L 36 301.5 L 71.5 259 Z " /><path fill="rgb(0,0,0)" stroke="rgb(0,0,0)" stroke-width="1" opacity="0" d="M 461.5 260 Q 476.8 267.2 487 279.5 L 494 292.5 L 494 304.5 Q 489.1 319.6 477.5 328 Q 460.6 341.6 438.5 350 L 422.5 356 L 388.5 365 L 354.5 371 L 337.5 372 L 336.5 373 L 311.5 374 L 310.5 375 L 288 375 L 269 316 L 272.5 315 L 297.5 314 L 305.5 312 L 326.5 310 L 376.5 299 L 406.5 289 L 425.5 281 L 448.5 269 L 461.5 260 Z " /><path fill="rgb(0,0,0)" stroke="rgb(0,0,0)" stroke-width="1" opacity="0" d="M 511.5 307 L 512 512 L 0 512 L 0 308.5 L 1 308.5 L 2 322.5 L 6 339.5 L 17 368.5 Q 32.6 400.4 57.5 423 Q 72.2 436.8 90.5 447 L 108.5 456 L 124.5 462 L 156.5 469 L 193.5 470 L 227.5 464 Q 247.6 458.1 264.5 449 Q 294.7 432.7 316 407.5 L 328.5 391 L 347.5 390 L 348.5 389 L 362.5 388 L 380.5 384 L 385.5 384 L 433.5 371 Q 457.6 362.6 477.5 350 Q 489.8 342.3 499 331.5 Q 508 322 511.5 307 Z " /><path fill="rgb(0,0,0)" stroke="rgb(0,0,0)" stroke-width="1" opacity="0" d="M 250.5 319 L 266 364.5 L 254 370 L 254 368.5 L 243 357.5 Q 240.4 356.1 241 351.5 L 250.5 319 Z " /><path fill="rgb(0,0,0)" stroke="rgb(0,0,0)" stroke-width="1" opacity="0" d="M 40.5 357 L 98.5 388 L 110 399.5 L 145 439.5 L 138.5 446 L 135.5 446 Q 92 432.5 64 403.5 Q 46.5 386 35 362.5 L 40.5 357 Z " /><path fill="rgb(0,0,0)" stroke="rgb(0,0,0)" stroke-width="1" opacity="0" d="M 132.5 366 L 226.5 366 L 231 370.5 L 241 381.5 L 197 429.5 L 192 436.5 L 192 442.5 L 199 450.5 L 190.5 452 L 168.5 452 L 160 450.5 Q 167.6 447.6 167 436.5 L 118 381.5 L 132.5 366 Z " /><path fill="rgb(0,0,0)" stroke="rgb(0,0,0)" stroke-width="1" opacity="0" d="M 269.5 383 Q 273.3 381.8 272 385.5 L 276.5 392 L 278.5 393 L 303 393 L 303 394.5 L 283.5 414 Q 258.4 436.4 220.5 446 L 214 438.5 L 258 390.5 L 258 389 L 269.5 383 Z " /><path fill="rgb(18,137,200)" stroke="rgb(18,137,200)" stroke-width="1" opacity="0.9490196078431372" d="M 249.5 43 L 271.5 43 L 272.5 44 L 284.5 44 L 285.5 45 L 296.5 45 L 297.5 46 L 320.5 48 L 352.5 54 L 389.5 64 L 416.5 74 L 448.5 90 Q 470.9 103.1 488 121.5 Q 500.5 135 508 153.5 L 512 169.5 L 512 189.5 L 508 205.5 L 497 227 Q 494.3 225.9 495 228.5 L 489 237 Q 486.3 235.9 487 238.5 L 477 247.5 Q 491.1 255.9 501 268.5 L 503 271.5 L 511 287.5 Q 513.5 295 512 306.5 L 505 323.5 L 488.5 342 Q 473 354.5 453.5 363 L 421.5 375 L 385.5 384 L 380.5 384 L 362.5 388 L 348.5 389 L 347.5 390 L 328.5 391 L 326 393.5 Q 313.9 412.9 296.5 427 Q 276.2 444.7 249.5 456 L 247.5 455 L 246 455.5 L 246.5 437 L 248.5 437 Q 280.9 420.9 303 394.5 L 302.5 393 L 278.5 393 L 274 389.5 L 272 383 L 269.5 383 L 258 389.5 L 249.5 399 L 246.5 401 L 246 362.5 L 247 362.5 L 248.5 365 L 250 364.5 Q 249.3 366.8 251.5 366 L 254 370 L 266 364.5 L 250.5 319 L 247 327.5 L 247.5 329 L 246 328.5 L 246 299.5 L 245.5 298 L 247.5 299 L 248.5 298 L 269.5 298 L 270.5 297 L 293.5 296 L 309.5 293 L 316.5 293 L 333.5 289 L 343.5 288 L 377.5 279 Q 410.8 268.8 438.5 253 Q 456.5 242.5 471 228.5 L 472.5 226 L 476 223.5 Q 485.4 213.4 491 199.5 Q 496.3 188.3 494 169.5 Q 487.9 146.1 472.5 132 Q 470.3 132.8 471 130.5 Q 452.2 112.3 427.5 100 Q 404.2 88.3 377.5 80 L 347.5 72 L 316.5 66 L 293.5 64 L 292.5 63 L 282.5 63 L 281.5 62 L 270.5 62 L 269.5 61 L 249.5 61 L 246 60 L 246 44.5 L 248.5 44 L 249.5 43 Z M 462 260 L 449 269 L 426 281 L 407 289 L 377 299 L 327 310 L 306 312 L 298 314 L 273 315 L 269 316 L 288 375 L 311 375 L 312 374 L 337 373 L 338 372 L 355 371 L 389 365 L 423 356 L 439 350 Q 461 342 478 328 Q 489 320 494 305 L 494 293 L 487 280 Q 477 267 462 260 Z " /><path fill="rgb(18,137,200)" stroke="rgb(18,137,200)" stroke-width="1" opacity="0.9490196078431372" d="M 248.5 78 L 250.5 79 L 252.5 79 L 261.5 79 L 262.5 80 L 269.5 80 L 270.5 81 L 288.5 83 L 293.5 85 L 306.5 87 L 332.5 95 L 367.5 112 Q 379.8 119.7 389 130.5 Q 400.5 142 402 163.5 Q 399.3 165.3 401 171.5 L 396 184.5 Q 389.3 195.8 379.5 204 L 362.5 216 L 326.5 232 L 287.5 242 L 262.5 245 L 261.5 246 L 251.5 246 L 250.5 247 L 246 246 L 246 230.5 L 247.5 230 L 250.5 228 L 259.5 228 L 260.5 227 L 281 225 L 281 177.5 L 283 173 L 287 170.5 Q 274.2 157.8 257.5 149 Q 257.6 157.1 253.5 161 L 248.5 164 L 246 163 L 246 125.5 L 247.5 124 L 248.5 126 L 250.5 125 Q 284 140 308 164.5 Q 326.7 182.8 338 207 Q 361.9 198.7 377 180.5 L 383 168.5 L 383 156.5 Q 377.3 140.7 364.5 132 Q 341.9 115.6 311.5 107 L 286.5 101 L 281.5 101 L 268.5 98 L 261.5 98 L 260.5 97 L 252.5 97 L 246 95 L 246 79.5 L 247.5 79 L 248.5 78 Z M 299 189 L 300 221 L 320 215 L 321 214 L 307 192 Q 305 188 299 189 Z " /><path fill="rgb(18,137,200)" stroke="rgb(18,137,200)" stroke-width="1" opacity="0.9490196078431372" d="M 238.5 411 L 237.5 413 L 238.5 411 Z " /></svg>