<svg xmlns="http://www.w3.org/2000/svg" viewBox="0 0 24 24" fill="none" stroke="#F5F5DC" stroke-width="2" stroke-linecap="round" stroke-linejoin="round">
  <circle cx="12" cy="12" r="10" />
  <path d="M12 2a10 10 0 0 0-6.88 17.23L12 12l6.88-7.23A10 10 0 0 0 12 2Z" />
  <path d="M12 22a10 10 0 0 0 6.88-17.23L12 12l-6.88 7.23A10 10 0 0 0 12 22Z" />
  <path d="M2.63 15.5H12l-4.72 5a10.01 10.01 0 0 1-4.65-5Z" />
  <path d="M21.37 15.5H12l4.72 5a10.01 10.01 0 0 0 4.65-5Z" />
  <path d="M2.63 8.5h9.37l-4.72-5a10.01 10.01 0 0 0-4.65 5Z" />
  <path d="M21.37 8.5H12l4.72-5a10.01 10.01 0 0 1 4.65 5Z" />
</svg>